<svg width="0" class="hidden">
  <symbol xmlns="http://www.w3.org/2000/svg" fill="currentColor" viewBox="0 0 16 16" id="caret-down-fill">
    <path d="M7.247 11.14 2.451 5.658C1.885 5.013 2.345 4 3.204 4h9.592a1 1 0 0 1 .753 1.659l-4.796 5.48a1 1 0 0 1-1.506 0z"></path>
  </symbol>
  <symbol xmlns="http://www.w3.org/2000/svg" fill="currentColor" viewBox="0 0 16 16" id="envelope-fill">
    <path d="M.05 3.555A2 2 0 0 1 2 2h12a2 2 0 0 1 1.95 1.555L8 8.414zM0 4.697v7.104l5.803-3.558zM6.761 8.83l-6.57 4.027A2 2 0 0 0 2 14h12a2 2 0 0 0 1.808-1.144l-6.57-4.027L8 9.586zm3.436-.586L16 11.801V4.697z"></path>
  </symbol>
  <symbol xmlns="http://www.w3.org/2000/svg" viewBox="0 0 640 640" id="send-letter">
    <path d="M568.4 37.7C578.2 34.2 589 36.7 596.4 44C603.8 51.3 606.2 62.2 602.7 72L424.7 568.9C419.7 582.8 406.6 592 391.9 592C377.7 592 364.9 583.4 359.6 570.3L295.4 412.3C290.9 401.3 292.9 388.7 300.6 379.7L395.1 267.3C400.2 261.2 399.8 252.3 394.2 246.7C388.6 241.1 379.6 240.7 373.6 245.8L261.2 340.1C252.1 347.7 239.6 349.7 228.6 345.3L70.1 280.8C57 275.5 48.4 262.7 48.4 248.5C48.4 233.8 57.6 220.7 71.5 215.7L568.4 37.7z"></path>
  </symbol>
  <symbol xmlns="http://www.w3.org/2000/svg" viewBox="0 0 640 640" id="babysitting">
    <path d="M128 272L128 352C128 405 171 448 224 448L416 448C469 448 512 405 512 352L512 240L552 240C565.3 240 576 229.3 576 216C576 202.7 565.3 192 552 192L488 192C474.7 192 464 202.7 464 216L464 272L128 272zM128.2 224L352 224L352 96C352 78.3 337.7 64 320 64L296 64C205.9 64 132.4 134.9 128.2 224zM224 528C224 501.5 202.5 480 176 480C149.5 480 128 501.5 128 528C128 554.5 149.5 576 176 576C202.5 576 224 554.5 224 528zM512 528C512 501.5 490.5 480 464 480C437.5 480 416 501.5 416 528C416 554.5 437.5 576 464 576C490.5 576 512 554.5 512 528z"></path>
  </symbol>
  <symbol xmlns="http://www.w3.org/2000/svg" viewBox="0 0 640 640" id="bar-drink">
    <path d="M155.6 81.3C163 67 179.9 60.4 195 65.9L320 111.5L445 65.9C460.1 60.4 477 67 484.4 81.3L563.2 234.2C592 290 573.5 356.5 524.7 390.8L556 477L597 462C613.6 456 632 464.5 638 481.1C644 497.7 635.5 516.1 618.9 522.1C571.5 539.4 524.1 556.6 476.7 573.9C460.1 580 441.7 571.4 435.7 554.8C429.7 538.2 438.2 519.8 454.8 513.8L495.8 498.8L464.5 412.6C405.1 417.8 348.3 378.7 334.5 317.4L319.9 252.7L305.3 317.4C291.5 378.7 234.7 417.8 175.3 412.6L144 498.8L185 513.8C201.6 519.9 210.2 538.2 204.1 554.8C198 571.4 179.7 580 163.1 573.9C115.7 556.6 68.3 539.3 20.9 522.1C4.3 516-4.3 497.7 1.8 481.1C7.9 464.5 26.3 456 42.9 462L83.9 477L115.2 390.8C66.5 356.5 48.1 290 76.9 234.2L155.6 81.3zM199.6 135.7L172.4 188.5L261.6 221L274.7 163.1L199.6 135.7zM440.5 135.7L365.4 163.1L378.5 221L467.7 188.5L440.5 135.7z"></path>
  </symbol>
  <symbol xmlns="http://www.w3.org/2000/svg" viewBox="0 0 640 640" id="catering">
    <path d="M127.9 78.4C127.1 70.2 120.2 64 112 64C103.8 64 96.9 70.2 96 78.3L81.9 213.7C80.6 219.7 80 225.8 80 231.9C80 277.8 115.1 315.5 160 319.6L160 544C160 561.7 174.3 576 192 576C209.7 576 224 561.7 224 544L224 319.6C268.9 315.5 304 277.8 304 231.9C304 225.8 303.4 219.7 302.1 213.7L287.9 78.3C287.1 70.2 280.2 64 272 64C263.8 64 256.9 70.2 256.1 78.4L242.5 213.9C241.9 219.6 237.1 224 231.4 224C225.6 224 220.8 219.6 220.2 213.8L207.9 78.6C207.2 70.3 200.3 64 192 64C183.7 64 176.8 70.3 176.1 78.6L163.8 213.8C163.3 219.6 158.4 224 152.6 224C146.8 224 142 219.6 141.5 213.9L127.9 78.4zM512 64C496 64 384 96 384 240L384 352C384 387.3 412.7 416 448 416L480 416L480 544C480 561.7 494.3 576 512 576C529.7 576 544 561.7 544 544L544 96C544 78.3 529.7 64 512 64z"></path>
  </symbol>
  <symbol xmlns="http://www.w3.org/2000/svg" viewBox="0 0 640 640" id="driver">
    <path d="M199.2 181.4L173.1 256L466.9 256L440.8 181.4C436.3 168.6 424.2 160 410.6 160L229.4 160C215.8 160 203.7 168.6 199.2 181.4zM103.6 260.8L138.8 160.3C152.3 121.8 188.6 96 229.4 96L410.6 96C451.4 96 487.7 121.8 501.2 160.3L536.4 260.8C559.6 270.4 576 293.3 576 320L576 512C576 529.7 561.7 544 544 544L512 544C494.3 544 480 529.7 480 512L480 480L160 480L160 512C160 529.7 145.7 544 128 544L96 544C78.3 544 64 529.7 64 512L64 320C64 293.3 80.4 270.4 103.6 260.8zM192 368C192 350.3 177.7 336 160 336C142.3 336 128 350.3 128 368C128 385.7 142.3 400 160 400C177.7 400 192 385.7 192 368zM480 400C497.7 400 512 385.7 512 368C512 350.3 497.7 336 480 336C462.3 336 448 350.3 448 368C448 385.7 462.3 400 480 400z"></path>
  </symbol>
  <symbol xmlns="http://www.w3.org/2000/svg" viewBox="0 0 640 640" id="laundry">
    <path d="M320.2 176C364.4 176 400.2 140.2 400.2 96L453.7 96C470.7 96 487 102.7 499 114.7L617.6 233.4C630.1 245.9 630.1 266.2 617.6 278.7L566.9 329.4C554.4 341.9 534.1 341.9 521.6 329.4L480.2 288L480.2 512C480.2 547.3 451.5 576 416.2 576L224.2 576C188.9 576 160.2 547.3 160.2 512L160.2 288L118.8 329.4C106.3 341.9 86 341.9 73.5 329.4L22.9 278.6C10.4 266.1 10.4 245.8 22.9 233.3L141.5 114.7C153.5 102.7 169.8 96 186.8 96L240.3 96C240.3 140.2 276.1 176 320.3 176z"></path>
  </symbol>
  <symbol xmlns="http://www.w3.org/2000/svg" viewBox="0 0 640 640" id="travel-plan">
    <path d="M128 252.6C128 148.4 214 64 320 64C426 64 512 148.4 512 252.6C512 371.9 391.8 514.9 341.6 569.4C329.8 582.2 310.1 582.2 298.3 569.4C248.1 514.9 127.9 371.9 127.9 252.6zM320 320C355.3 320 384 291.3 384 256C384 220.7 355.3 192 320 192C284.7 192 256 220.7 256 256C256 291.3 284.7 320 320 320z"></path>
  </symbol>
  <symbol xmlns="http://www.w3.org/2000/svg" viewBox="0 0 640 640" id="check">
    <path d="M530.8 134.1C545.1 144.5 548.3 164.5 537.9 178.8L281.9 530.8C276.4 538.4 267.9 543.1 258.5 543.9C249.1 544.7 240 541.2 233.4 534.6L105.4 406.6C92.9 394.1 92.9 373.8 105.4 361.3C117.9 348.8 138.2 348.8 150.7 361.3L252.2 462.8L486.2 141.1C496.6 126.8 516.6 123.6 530.9 134z"></path>
  </symbol>
  <symbol xmlns="http://www.w3.org/2000/svg" fill="currentColor" viewBox="0 0 16 16" id="facebook">
    <path d="M16 8.049c0-4.446-3.582-8.05-8-8.05C3.58 0-.002 3.603-.002 8.05c0 4.017 2.926 7.347 6.75 7.951v-5.625h-2.03V8.05H6.75V6.275c0-2.017 1.195-3.131 3.022-3.131.876 0 1.791.157 1.791.157v1.98h-1.009c-.993 0-1.303.621-1.303 1.258v1.51h2.218l-.354 2.326H9.25V16c3.824-.604 6.75-3.934 6.75-7.951"></path>
  </symbol>
  <symbol xmlns="http://www.w3.org/2000/svg" fill="currentColor" viewBox="0 0 16 16" id="instagram">
    <path d="M8 0C5.829 0 5.556.01 4.703.048 3.85.088 3.269.222 2.76.42a3.9 3.9 0 0 0-1.417.923A3.9 3.9 0 0 0 .42 2.76C.222 3.268.087 3.85.048 4.7.01 5.555 0 5.827 0 8.001c0 2.172.01 2.444.048 3.297.04.852.174 1.433.372 1.942.205.526.478.972.923 1.417.444.445.89.719 1.416.923.51.198 1.09.333 1.942.372C5.555 15.99 5.827 16 8 16s2.444-.01 3.298-.048c.851-.04 1.434-.174 1.943-.372a3.9 3.9 0 0 0 1.416-.923c.445-.445.718-.891.923-1.417.197-.509.332-1.09.372-1.942C15.99 10.445 16 10.173 16 8s-.01-2.445-.048-3.299c-.04-.851-.175-1.433-.372-1.941a3.9 3.9 0 0 0-.923-1.417A3.9 3.9 0 0 0 13.24.42c-.51-.198-1.092-.333-1.943-.372C10.443.01 10.172 0 7.998 0zm-.717 1.442h.718c2.136 0 2.389.007 3.232.046.78.035 1.204.166 1.486.275.373.145.64.319.92.599s.453.546.598.92c.11.281.24.705.275 1.485.039.843.047 1.096.047 3.231s-.008 2.389-.047 3.232c-.035.78-.166 1.203-.275 1.485a2.5 2.5 0 0 1-.599.919c-.28.28-.546.453-.92.598-.28.11-.704.24-1.485.276-.843.038-1.096.047-3.232.047s-2.39-.009-3.233-.047c-.78-.036-1.203-.166-1.485-.276a2.5 2.5 0 0 1-.92-.598 2.5 2.5 0 0 1-.6-.92c-.109-.281-.24-.705-.275-1.485-.038-.843-.046-1.096-.046-3.233s.008-2.388.046-3.231c.036-.78.166-1.204.276-1.486.145-.373.319-.64.599-.92s.546-.453.92-.598c.282-.11.705-.24 1.485-.276.738-.034 1.024-.044 2.515-.045zm4.988 1.328a.96.96 0 1 0 0 1.92.96.96 0 0 0 0-1.92m-4.27 1.122a4.109 4.109 0 1 0 0 8.217 4.109 4.109 0 0 0 0-8.217m0 1.441a2.667 2.667 0 1 1 0 5.334 2.667 2.667 0 0 1 0-5.334"></path>
  </symbol>
  <symbol xmlns="http://www.w3.org/2000/svg" fill="currentColor" viewBox="0 0 16 16" id="twitch">
    <path d="M3.857 0 1 2.857v10.286h3.429V16l2.857-2.857H9.57L14.714 8V0zm9.714 7.429-2.285 2.285H9l-2 2v-2H4.429V1.143h9.142z"></path>
    <path d="M11.857 3.143h-1.143V6.57h1.143zm-3.143 0H7.571V6.57h1.143z"></path>
  </symbol>
  <symbol xmlns="http://www.w3.org/2000/svg" fill="currentColor" viewBox="0 0 16 16" id="twitter-x">
    <path d="M12.6.75h2.454l-5.36 6.142L16 15.25h-4.937l-3.867-5.07-4.425 5.07H.316l5.733-6.57L0 .75h5.063l3.495 4.633L12.601.75Zm-.86 13.028h1.36L4.323 2.145H2.865z"></path>
  </symbol>
  <symbol xmlns="http://www.w3.org/2000/svg" fill="currentColor" viewBox="0 0 16 16" id="telephone-fill">
    <path fill-rule="evenodd" d="M1.885.511a1.745 1.745 0 0 1 2.61.163L6.29 2.98c.329.423.445.974.315 1.494l-.547 2.19a.68.68 0 0 0 .178.643l2.457 2.457a.68.68 0 0 0 .644.178l2.189-.547a1.75 1.75 0 0 1 1.494.315l2.306 1.794c.829.645.905 1.87.163 2.611l-1.034 1.034c-.74.74-1.846 1.065-2.877.702a18.6 18.6 0 0 1-7.01-4.42 18.6 18.6 0 0 1-4.42-7.009c-.362-1.03-.037-2.137.703-2.877z"></path>
  </symbol>
  <symbol xmlns="http://www.w3.org/2000/svg" viewBox="0 0 640 640" id="file-invoice-dollar">
    <path d="M128 128C128 92.7 156.7 64 192 64L341.5 64C358.5 64 374.8 70.7 386.8 82.7L493.3 189.3C505.3 201.3 512 217.6 512 234.6L512 512C512 547.3 483.3 576 448 576L192 576C156.7 576 128 547.3 128 512L128 128zM336 122.5L336 216C336 229.3 346.7 240 360 240L453.5 240L336 122.5zM192 152C192 165.3 202.7 176 216 176L264 176C277.3 176 288 165.3 288 152C288 138.7 277.3 128 264 128L216 128C202.7 128 192 138.7 192 152zM192 248C192 261.3 202.7 272 216 272L264 272C277.3 272 288 261.3 288 248C288 234.7 277.3 224 264 224L216 224C202.7 224 192 234.7 192 248zM304 324L304 328C275.2 328.3 252 351.7 252 380.5C252 406.2 270.5 428.1 295.9 432.3L337.6 439.3C343.6 440.3 348 445.5 348 451.6C348 458.5 342.4 464.1 335.5 464.1L280 464C269 464 260 473 260 484C260 495 269 504 280 504L304 504L304 508C304 519 313 528 324 528C335 528 344 519 344 508L344 503.3C369 499.2 388 477.6 388 451.5C388 425.8 369.5 403.9 344.1 399.7L302.4 392.7C296.4 391.7 292 386.5 292 380.4C292 373.5 297.6 367.9 304.5 367.9L352 367.9C363 367.9 372 358.9 372 347.9C372 336.9 363 327.9 352 327.9L344 327.9L344 323.9C344 312.9 335 303.9 324 303.9C313 303.9 304 312.9 304 323.9z"></path>
  </symbol>
  <symbol xmlns="http://www.w3.org/2000/svg" viewBox="0 0 640 640" id="sack-dollar">
    <path d="M392 176L248 176L210.7 101.5C208.9 97.9 208 93.9 208 89.9C208 75.6 219.6 64 233.9 64L406.1 64C420.4 64 432 75.6 432 89.9C432 93.9 431.1 97.9 429.3 101.5L392 176zM233.6 224L406.4 224L455.1 264.6C521.6 320 560 402 560 488.5C560 536.8 520.8 576 472.5 576L167.4 576C119.2 576 80 536.8 80 488.5C80 402 118.4 320 184.9 264.6L233.6 224zM324 288C313 288 304 297 304 308L304 312C275.2 312.3 252 335.7 252 364.5C252 390.2 270.5 412.1 295.9 416.3L337.6 423.3C343.6 424.3 348 429.5 348 435.6C348 442.5 342.4 448.1 335.5 448.1L280 448C269 448 260 457 260 468C260 479 269 488 280 488L304 488L304 492C304 503 313 512 324 512C335 512 344 503 344 492L344 487.3C369 483.2 388 461.6 388 435.5C388 409.8 369.5 387.9 344.1 383.7L302.4 376.7C296.4 375.7 292 370.5 292 364.4C292 357.5 297.6 351.9 304.5 351.9L352 351.9C363 351.9 372 342.9 372 331.9C372 320.9 363 311.9 352 311.9L344 311.9L344 307.9C344 296.9 335 287.9 324 287.9z"></path>
  </symbol>
  <symbol xmlns="http://www.w3.org/2000/svg" viewBox="0 0 640 640" id="credit-card">
    <path d="M64 192L64 224L576 224L576 192C576 156.7 547.3 128 512 128L128 128C92.7 128 64 156.7 64 192zM64 272L64 448C64 483.3 92.7 512 128 512L512 512C547.3 512 576 483.3 576 448L576 272L64 272zM128 424C128 410.7 138.7 400 152 400L200 400C213.3 400 224 410.7 224 424C224 437.3 213.3 448 200 448L152 448C138.7 448 128 437.3 128 424zM272 424C272 410.7 282.7 400 296 400L360 400C373.3 400 384 410.7 384 424C384 437.3 373.3 448 360 448L296 448C282.7 448 272 437.3 272 424z"></path>
  </symbol>
  <symbol xmlns="http://www.w3.org/2000/svg" viewBox="0 0 640 640" id="circle-info">
    <path d="M320 576C461.4 576 576 461.4 576 320C576 178.6 461.4 64 320 64C178.6 64 64 178.6 64 320C64 461.4 178.6 576 320 576zM288 224C288 206.3 302.3 192 320 192C337.7 192 352 206.3 352 224C352 241.7 337.7 256 320 256C302.3 256 288 241.7 288 224zM280 288L328 288C341.3 288 352 298.7 352 312L352 400L360 400C373.3 400 384 410.7 384 424C384 437.3 373.3 448 360 448L280 448C266.7 448 256 437.3 256 424C256 410.7 266.7 400 280 400L304 400L304 336L280 336C266.7 336 256 325.3 256 312C256 298.7 266.7 288 280 288z"></path>
  </symbol>
  <symbol xmlns="http://www.w3.org/2000/svg" viewBox="0 0 640 640" id="location-dot">
    <path d="M128 252.6C128 148.4 214 64 320 64C426 64 512 148.4 512 252.6C512 371.9 391.8 514.9 341.6 569.4C329.8 582.2 310.1 582.2 298.3 569.4C248.1 514.9 127.9 371.9 127.9 252.6zM320 320C355.3 320 384 291.3 384 256C384 220.7 355.3 192 320 192C284.7 192 256 220.7 256 256C256 291.3 284.7 320 320 320z"></path>
  </symbol>
  <symbol xmlns="http://www.w3.org/2000/svg" viewBox="0 0 640 640" id="bell">
    <path d="M320 64C302.3 64 288 78.3 288 96L288 99.2C215 114 160 178.6 160 256L160 277.7C160 325.8 143.6 372.5 113.6 410.1L103.8 422.3C98.7 428.6 96 436.4 96 444.5C96 464.1 111.9 480 131.5 480L508.4 480C528 480 543.9 464.1 543.9 444.5C543.9 436.4 541.2 428.6 536.1 422.3L526.3 410.1C496.4 372.5 480 325.8 480 277.7L480 256C480 178.6 425 114 352 99.2L352 96C352 78.3 337.7 64 320 64zM258 528C265.1 555.6 290.2 576 320 576C349.8 576 374.9 555.6 382 528L258 528z"></path>
  </symbol>
  <symbol xmlns="http://www.w3.org/2000/svg" viewBox="0 0 640 640" id="gear">
    <path d="M259.1 73.5C262.1 58.7 275.2 48 290.4 48L350.2 48C365.4 48 378.5 58.7 381.5 73.5L396 143.5C410.1 149.5 423.3 157.2 435.3 166.3L503.1 143.8C517.5 139 533.3 145 540.9 158.2L570.8 210C578.4 223.2 575.7 239.8 564.3 249.9L511 297.3C511.9 304.7 512.3 312.3 512.3 320C512.3 327.7 511.8 335.3 511 342.7L564.4 390.2C575.8 400.3 578.4 417 570.9 430.1L541 481.9C533.4 495 517.6 501.1 503.2 496.3L435.4 473.8C423.3 482.9 410.1 490.5 396.1 496.6L381.7 566.5C378.6 581.4 365.5 592 350.4 592L290.6 592C275.4 592 262.3 581.3 259.3 566.5L244.9 496.6C230.8 490.6 217.7 482.9 205.6 473.8L137.5 496.3C123.1 501.1 107.3 495.1 99.7 481.9L69.8 430.1C62.2 416.9 64.9 400.3 76.3 390.2L129.7 342.7C128.8 335.3 128.4 327.7 128.4 320C128.4 312.3 128.9 304.7 129.7 297.3L76.3 249.8C64.9 239.7 62.3 223 69.8 209.9L99.7 158.1C107.3 144.9 123.1 138.9 137.5 143.7L205.3 166.2C217.4 157.1 230.6 149.5 244.6 143.4L259.1 73.5zM320.3 400C364.5 399.8 400.2 363.9 400 319.7C399.8 275.5 363.9 239.8 319.7 240C275.5 240.2 239.8 276.1 240 320.3C240.2 364.5 276.1 400.2 320.3 400z"></path>
  </symbol>
  <symbol xmlns="http://www.w3.org/2000/svg" viewBox="0 0 640 640" id="user">
    <path d="M320 312C386.3 312 440 258.3 440 192C440 125.7 386.3 72 320 72C253.7 72 200 125.7 200 192C200 258.3 253.7 312 320 312zM290.3 368C191.8 368 112 447.8 112 546.3C112 562.7 125.3 576 141.7 576L498.3 576C514.7 576 528 562.7 528 546.3C528 447.8 448.2 368 349.7 368L290.3 368z"></path>
  </symbol>
  <symbol xmlns="http://www.w3.org/2000/svg" viewBox="0 0 640 640" id="bell-concierge">
    <path d="M280 128C266.7 128 256 138.7 256 152C256 165.3 266.7 176 280 176L296 176L296 209.3C188.8 220.7 104.2 307.7 96.6 416L543.5 416C535.8 307.7 451.2 220.7 344 209.3L344 176L360 176C373.3 176 384 165.3 384 152C384 138.7 373.3 128 360 128L280 128zM88 464C74.7 464 64 474.7 64 488C64 501.3 74.7 512 88 512L552 512C565.3 512 576 501.3 576 488C576 474.7 565.3 464 552 464L88 464z"></path>
  </symbol>
  <symbol xmlns="http://www.w3.org/2000/svg" viewBox="0 0 640 640" id="plus">
    <path d="M352 128C352 110.3 337.7 96 320 96C302.3 96 288 110.3 288 128L288 288L128 288C110.3 288 96 302.3 96 320C96 337.7 110.3 352 128 352L288 352L288 512C288 529.7 302.3 544 320 544C337.7 544 352 529.7 352 512L352 352L512 352C529.7 352 544 337.7 544 320C544 302.3 529.7 288 512 288L352 288L352 128z"></path>
  </symbol>
  <symbol xmlns="http://www.w3.org/2000/svg" viewBox="0 0 640 640" id="list">
    <path d="M104 112C90.7 112 80 122.7 80 136L80 184C80 197.3 90.7 208 104 208L152 208C165.3 208 176 197.3 176 184L176 136C176 122.7 165.3 112 152 112L104 112zM256 128C238.3 128 224 142.3 224 160C224 177.7 238.3 192 256 192L544 192C561.7 192 576 177.7 576 160C576 142.3 561.7 128 544 128L256 128zM256 288C238.3 288 224 302.3 224 320C224 337.7 238.3 352 256 352L544 352C561.7 352 576 337.7 576 320C576 302.3 561.7 288 544 288L256 288zM256 448C238.3 448 224 462.3 224 480C224 497.7 238.3 512 256 512L544 512C561.7 512 576 497.7 576 480C576 462.3 561.7 448 544 448L256 448zM80 296L80 344C80 357.3 90.7 368 104 368L152 368C165.3 368 176 357.3 176 344L176 296C176 282.7 165.3 272 152 272L104 272C90.7 272 80 282.7 80 296zM104 432C90.7 432 80 442.7 80 456L80 504C80 517.3 90.7 528 104 528L152 528C165.3 528 176 517.3 176 504L176 456C176 442.7 165.3 432 152 432L104 432z"></path>
  </symbol>
  <symbol xmlns="http://www.w3.org/2000/svg" viewBox="0 0 640 640" id="check">
    <path d="M530.8 134.1C545.1 144.5 548.3 164.5 537.9 178.8L281.9 530.8C276.4 538.4 267.9 543.1 258.5 543.9C249.1 544.7 240 541.2 233.4 534.6L105.4 406.6C92.9 394.1 92.9 373.8 105.4 361.3C117.9 348.8 138.2 348.8 150.7 361.3L252.2 462.8L486.2 141.1C496.6 126.8 516.6 123.6 530.9 134z"></path>
  </symbol>
  <symbol xmlns="http://www.w3.org/2000/svg" viewBox="0 0 640 640" id="lock">
    <path d="M256 160L256 224L384 224L384 160C384 124.7 355.3 96 320 96C284.7 96 256 124.7 256 160zM192 224L192 160C192 89.3 249.3 32 320 32C390.7 32 448 89.3 448 160L448 224C483.3 224 512 252.7 512 288L512 512C512 547.3 483.3 576 448 576L192 576C156.7 576 128 547.3 128 512L128 288C128 252.7 156.7 224 192 224z"></path>
  </symbol>
  <symbol xmlns="http://www.w3.org/2000/svg" viewBox="0 0 640 640" id="trash">
    <path d="M232.7 69.9L224 96L128 96C110.3 96 96 110.3 96 128C96 145.7 110.3 160 128 160L512 160C529.7 160 544 145.7 544 128C544 110.3 529.7 96 512 96L416 96L407.3 69.9C402.9 56.8 390.7 48 376.9 48L263.1 48C249.3 48 237.1 56.8 232.7 69.9zM512 208L128 208L149.1 531.1C150.7 556.4 171.7 576 197 576L443 576C468.3 576 489.3 556.4 490.9 531.1L512 208z"></path>
  </symbol>
</svg>